# xmcd CD database file
#
# Track frame offsets:
#	150
#	14979
#	32274
#	46320
#	60129
#	70106
#	82496
#	95823
#	112696
#	125982
#	138021
#	149303
#	169202
#	182022
#	197208
#	209712
#	227827
#	241915
#	257865
#	270395
#
# Disc length: 3751 seconds
#
# Revision: 3
# Processed by: cddbd v1.5.2PL0 Copyright (c) Steve Scherf et al.
# Submitted via: CDex 1.70beta2
#
DISCID=280ea514
DTITLE=Django Reinhardt - 100 Swinging Greats! CD 5
DYEAR=2007
DGENRE=Blues
TTITLE0=Vette
TTITLE1=Django's Dream (Reverie)
TTITLE2=Topsy
TTITLE3=Dinette
TTITLE4=What Is This Thing Called Love?
TTITLE5=Ol'Man River
TTITLE6=Tiger Rag
TTITLE7=Tears
TTITLE8=Oh, Lady Be Good
TTITLE9=Festival 48
TTITLE10=Daphne'
TTITLE11=La Mer
TTITLE12=Djangology
TTITLE13=Ou Es-Tu Mon Amour?
TTITLE14=I Got Rhythm
TTITLE15=Honeysuckle Rose
TTITLE16=Nuits de Saint-Germain-Des Pres
TTITLE17=Troublant Bolero
TTITLE18=Anouman
TTITLE19=Brazil
EXTD=YEAR: 2007
EXTT0=
EXTT1=
EXTT2=
EXTT3=
EXTT4=
EXTT5=
EXTT6=
EXTT7=
EXTT8=
EXTT9=
EXTT10=
EXTT11=
EXTT12=
EXTT13=
EXTT14=
EXTT15=
EXTT16=
EXTT17=
EXTT18=
EXTT19=
PLAYORDER=
